<svg width="30" height="30" viewBox="0 0 30 30" fill="none" xmlns="http://www.w3.org/2000/svg">
<path d="M8.0135 6.4534L5.6135 4.06673L3.7335 5.94673L6.12016 8.3334L8.0135 6.4534ZM4.3335 14.0001H0.333496V16.6667H4.3335V14.0001ZM16.3335 0.733398H13.6668V4.66673H16.3335V0.733398ZM26.2668 5.94673L24.3868 4.06673L22.0002 6.4534L23.8802 8.3334L26.2668 5.94673ZM21.9868 24.2134L24.3735 26.6134L26.2535 24.7334L23.8535 22.3467L21.9868 24.2134ZM25.6668 14.0001V16.6667H29.6668V14.0001H25.6668ZM15.0002 7.3334C10.5868 7.3334 7.00016 10.9201 7.00016 15.3334C7.00016 19.7467 10.5868 23.3334 15.0002 23.3334C19.4135 23.3334 23.0002 19.7467 23.0002 15.3334C23.0002 10.9201 19.4135 7.3334 15.0002 7.3334ZM13.6668 29.9334H16.3335V26.0001H13.6668V29.9334ZM3.7335 24.7201L5.6135 26.6001L8.00016 24.2001L6.12016 22.3201L3.7335 24.7201Z" fill="#333333"/>
</svg>
